<svg xmlns="http://www.w3.org/2000/svg" viewBox="0 0 35 35">
  <path fill="#4AA3EA" d="M33 35H2a2 2 0 01-2-2V2C0 .9.9 0 2 0h31a2 2 0 012 2v31a2 2 0 01-2 2z"/>
  <path fill="#FFF" d="M29 11c-.8.3-1.6.6-2.5.7.9-.5 1.6-1.4 1.9-2.4-.8.5-1.8.8-2.7 1-.8-.8-1.9-1.3-3.2-1.3-2.4 0-4.3 1.9-4.3 4.3 0 .3 0 .7.1 1-3.6-.2-6.8-1.9-8.9-4.5-.4.6-.6 1.4-.6 2.2 0 1.5.8 2.8 1.9 3.6-.7 0-1.4-.2-2-.5v.1c0 2.1 1.5 3.8 3.5 4.2-.4.1-.7.2-1.1.2-.3 0-.5 0-.8-.1.5 1.7 2.1 2.9 4 3a8.38 8.38 0 01-5.4 1.8c-.3 0-.7 0-1-.1 1.9 1.2 4.2 1.9 6.6 1.9 7.9 0 12.3-6.5 12.3-12.2v-.6c.9-.7 1.6-1.4 2.2-2.3z"/>
</svg>
